<svg width="18" height="18" viewBox="0 0 18 18" fill="none" xmlns="http://www.w3.org/2000/svg">
<path fill-rule="evenodd" clip-rule="evenodd" d="M14.2948 4.82999C14.5054 5.04092 14.6238 5.32686 14.6238 5.62499C14.6238 5.92311 14.5054 6.20905 14.2948 6.41999L7.54477 13.17C7.33383 13.3807 7.0479 13.499 6.74977 13.499C6.45164 13.499 6.16571 13.3807 5.95477 13.17L3.70477 10.92C3.50605 10.7067 3.39786 10.4247 3.40301 10.1332C3.40815 9.84175 3.52622 9.56367 3.73234 9.35755C3.93846 9.15143 4.21653 9.03337 4.50799 9.02822C4.79944 9.02308 5.08151 9.13127 5.29477 9.32999L6.74977 10.785L12.7048 4.82999C12.9157 4.61931 13.2016 4.50098 13.4998 4.50098C13.7979 4.50098 14.0838 4.61931 14.2948 4.82999Z" fill="#19C37D"/>
</svg>
