<svg width="73" height="72" viewBox="0 0 73 72" fill="none" xmlns="http://www.w3.org/2000/svg">
<path d="M20.4565 21.7113C20.1104 21.8199 19.9228 22.1616 19.8394 22.3951C19.7394 22.6452 19.6726 26.6313 19.6726 32.1517L19.6726 32.6611C19.6724 40.8168 19.6724 42.0234 20.2416 42.4269C20.3405 42.497 20.4565 42.5429 20.5926 42.5967C20.6027 42.6007 20.6129 42.6047 20.6233 42.6088C21.4905 42.9757 27.3946 43.793 30.8636 44.0598C31.9644 44.1432 32.8483 44.0765 34.5828 43.8096L36.851 43.4427L39.1359 43.8096C40.8871 44.0932 41.771 44.1432 42.8551 44.0598C46.7578 43.7596 52.4783 42.9257 53.2288 42.5421C53.479 42.4087 53.7625 42.1585 53.8626 41.9917C54.0794 41.5581 54.0961 22.9955 53.8626 22.3951C53.7792 22.1616 53.5707 21.8199 53.1955 21.7113C47.5666 20.1937 25.9269 20.1312 20.4565 21.7113Z" fill="#333333"/>
<path d="M20.1062 47.0912C19.706 47.4915 19.6726 47.6083 19.6726 49.1927C19.6726 49.2932 19.6723 49.3893 19.672 49.4814C19.6693 50.3158 19.6677 50.8106 19.91 51.1037C20.263 51.5308 21.1337 51.53 23.2729 51.5279H23.2763H23.2799L23.5513 51.5277L23.7587 51.5276C26.9609 51.5276 27.1944 51.5109 27.5113 51.194C27.8949 50.8104 27.9449 50.2267 27.6447 49.8098C27.4446 49.5429 21.7907 46.9745 20.9235 46.7577C20.6233 46.691 20.4064 46.7744 20.1062 47.0912Z" fill="#333333"/>
<path d="M32.1811 53.4039C31.9048 53.4039 31.6808 53.6279 31.6808 53.9042V54.9049C31.6808 55.1812 31.9048 55.4052 32.1811 55.4052H41.5208C41.7972 55.4052 42.0212 55.1812 42.0212 54.9049V53.9042C42.0212 53.6279 41.7972 53.4039 41.5208 53.4039H32.1811Z" fill="#333333"/>
<path d="M49.5263 48.1086C47.7417 48.8758 46.174 49.643 46.0739 49.8098C45.7571 50.2267 45.8071 50.8104 46.1907 51.194C46.5076 51.5109 46.7411 51.5276 49.9432 51.5276L50.1487 51.5277L50.4322 51.5279C52.5732 51.53 53.4424 51.5308 53.794 51.1046C54.0343 50.8133 54.0327 50.3225 54.03 49.4961V49.4945V49.4928C54.0297 49.4024 54.0294 49.308 54.0294 49.2093C54.0294 47.4582 53.8626 47.0078 53.1121 46.791C52.8952 46.741 51.561 47.2247 49.5263 48.1086Z" fill="#333333"/>
<path fill-rule="evenodd" clip-rule="evenodd" d="M56.098 0H16.098C7.26142 0 0.0979767 7.16344 0.0979767 16V56C0.0979767 64.8366 7.26142 72 16.098 72H56.098C64.9345 72 72.098 64.8366 72.098 56V16C72.098 7.16344 64.9345 0 56.098 0ZM55.3636 15.2696C53.5791 13.6685 45.5028 11 36.3715 11C27.9908 11 19.706 14.0354 18.3051 15.3029C17.4878 16.0368 17.1709 16.7206 17.1709 17.7212V18.4551L14.1856 20.74C12.5345 22.0075 11.1502 23.1416 11.1001 23.2917C11.0501 23.4251 11.0001 25.8935 11.0001 28.7621V33.999L11.3837 34.4493C11.7172 34.8329 11.9507 34.9163 12.818 34.983C13.4351 35.033 14.0355 34.9663 14.3524 34.8329C15.2697 34.466 15.3364 34.0657 15.3364 28.7788V24.0422L15.8534 23.5252C16.5539 22.8247 16.9875 22.5912 17.0876 22.8747C17.1376 22.9915 17.1876 29.8128 17.2043 38.0184L17.2543 52.9452L17.6379 53.7291C18.3051 55.08 19.5559 56.1141 21.0569 56.5977C21.2904 56.6811 21.3405 56.8979 21.3405 58.1655L21.3431 58.9702C21.3431 59.6265 21.8752 60.1585 22.5315 60.1585H26.1286C26.7849 60.1585 27.3169 59.6265 27.3169 58.9702L27.4279 56.7812H46.2741L46.3851 58.9702C46.3851 59.6265 46.9171 60.1585 47.5734 60.1585H51.1706C51.8269 60.1585 52.3589 59.6265 52.3589 58.9702L52.3616 58.1655C52.3616 56.8979 52.4116 56.6811 52.6451 56.5977L53.0787 56.4476C54.5631 55.9306 55.8473 54.5964 56.2976 53.062C56.4811 52.4449 56.5311 49.5429 56.5311 37.6515L56.5309 35.503V35.4693C56.5292 25.0195 56.5289 22.9192 56.9451 22.8332C57.0498 22.8115 57.1808 22.9173 57.3449 23.0497L57.384 23.0813C57.4154 23.1065 57.448 23.1324 57.4817 23.1583L57.5211 23.1896C57.7366 23.3611 57.9021 23.4927 58.0298 23.6543C58.4525 24.1891 58.4608 25.0515 58.4967 28.7689L58.4991 29.0123C58.5158 31.6307 58.5825 33.9323 58.6159 34.1324C58.7493 34.7495 59.5832 35.0664 60.834 34.983C61.7513 34.9163 61.9681 34.8496 62.3017 34.4493L62.702 33.999V28.7621C62.702 25.8935 62.6519 23.4251 62.6019 23.275C62.5519 23.1416 61.1676 21.9908 59.5165 20.7233L56.5311 18.4384V17.7046C56.5311 16.7206 56.1975 16.0368 55.3636 15.2696ZM20.4565 21.7113C20.1104 21.8199 19.9228 22.1616 19.8394 22.3951C19.7394 22.6452 19.6726 26.6313 19.6726 32.1517L19.6726 32.6611C19.6724 40.8168 19.6724 42.0234 20.2416 42.4269C20.3405 42.497 20.4565 42.5429 20.5926 42.5967C20.6027 42.6007 20.6129 42.6047 20.6233 42.6088C21.4905 42.9757 27.3946 43.793 30.8636 44.0598C31.9644 44.1432 32.8483 44.0765 34.5828 43.8096L36.851 43.4427L39.1359 43.8096C40.8871 44.0932 41.771 44.1432 42.8551 44.0598C46.7578 43.7596 52.4783 42.9257 53.2288 42.5421C53.479 42.4087 53.7625 42.1585 53.8626 41.9917C54.0794 41.5581 54.0961 22.9955 53.8626 22.3951C53.7792 22.1616 53.5707 21.8199 53.1955 21.7113C47.5666 20.1937 25.9269 20.1312 20.4565 21.7113ZM20.1062 47.0912C19.706 47.4915 19.6726 47.6083 19.6726 49.1927C19.6726 49.2932 19.6723 49.3893 19.672 49.4814C19.6693 50.3158 19.6677 50.8106 19.91 51.1037C20.263 51.5308 21.1337 51.53 23.2729 51.5279H23.2763H23.2799L23.5513 51.5277L23.7587 51.5276C26.9609 51.5276 27.1944 51.5109 27.5113 51.194C27.8949 50.8104 27.9449 50.2267 27.6447 49.8098C27.4446 49.5429 21.7907 46.9745 20.9235 46.7577C20.6233 46.691 20.4064 46.7744 20.1062 47.0912ZM49.5263 48.1086C47.7417 48.8758 46.174 49.643 46.0739 49.8098C45.7571 50.2267 45.8071 50.8104 46.1907 51.194C46.5076 51.5109 46.7411 51.5276 49.9432 51.5276L50.1487 51.5277L50.4322 51.5279C52.5732 51.53 53.4424 51.5308 53.794 51.1046C54.0343 50.8133 54.0327 50.3225 54.03 49.4961V49.4945V49.4928C54.0297 49.4024 54.0294 49.308 54.0294 49.2093C54.0294 47.4582 53.8626 47.0078 53.1121 46.791C52.8952 46.741 51.561 47.2247 49.5263 48.1086ZM32.1811 53.4039C31.9048 53.4039 31.6808 53.6279 31.6808 53.9042V54.9049C31.6808 55.1812 31.9048 55.4052 32.1811 55.4052H41.5208C41.7972 55.4052 42.0212 55.1812 42.0212 54.9049V53.9042C42.0212 53.6279 41.7972 53.4039 41.5208 53.4039H32.1811Z" fill="#333333"/>
</svg>
