<svg width="20" height="20" viewBox="0 0 20 20" fill="none" xmlns="http://www.w3.org/2000/svg">
<path d="M9.61241 8C10.4081 8 11.1711 7.68393 11.7337 7.12132C12.2963 6.55871 12.6124 5.79565 12.6124 5C12.6124 4.20435 12.2963 3.44129 11.7337 2.87868C11.1711 2.31607 10.4081 2 9.61241 2C8.81676 2 8.0537 2.31607 7.49109 2.87868C6.92848 3.44129 6.61241 4.20435 6.61241 5C6.61241 5.79565 6.92848 6.55871 7.49109 7.12132C8.0537 7.68393 8.81676 8 9.61241 8ZM3.07741 14.494C2.98505 14.7419 2.97506 15.0129 3.04892 15.2669C3.12278 15.5209 3.27654 15.7443 3.48741 15.904C5.23873 17.2652 7.39431 18.0028 9.61241 18C11.9224 18 14.0504 17.216 15.7434 15.9C16.1734 15.567 16.3474 14.997 16.1514 14.49C15.6436 13.168 14.747 12.0311 13.5797 11.2292C12.4125 10.4274 11.0295 9.99829 9.61338 9.99861C8.19724 9.99894 6.81449 10.4287 5.6476 11.231C4.48072 12.0334 3.58457 13.1708 3.07741 14.493" fill="#777777"/>
</svg>
