<svg width="20" height="20" viewBox="0 0 20 20" fill="none" xmlns="http://www.w3.org/2000/svg">
<path fill-rule="evenodd" clip-rule="evenodd" d="M1.66663 10C1.66663 10.3209 1.92663 10.5817 2.24829 10.5817H3.82496C3.96057 12.0193 4.59343 13.3645 5.61446 14.3855C6.63549 15.4066 7.98072 16.0394 9.41829 16.175V17.7517C9.41829 17.906 9.47957 18.0539 9.58866 18.163C9.69774 18.2721 9.84569 18.3334 9.99996 18.3334C10.1542 18.3334 10.3022 18.2721 10.4113 18.163C10.5203 18.0539 10.5816 17.906 10.5816 17.7517V16.175C12.0192 16.0394 13.3644 15.4066 14.3855 14.3855C15.4065 13.3645 16.0394 12.0193 16.175 10.5817H17.7516C17.9059 10.5817 18.0538 10.5204 18.1629 10.4113C18.272 10.3022 18.3333 10.1543 18.3333 10C18.3333 9.84575 18.272 9.6978 18.1629 9.58872C18.0538 9.47964 17.9059 9.41835 17.7516 9.41835H16.175C16.0394 7.98078 15.4065 6.63555 14.3855 5.61452C13.3644 4.59349 12.0192 3.96063 10.5816 3.82502V2.24835C10.5816 2.09409 10.5203 1.94614 10.4113 1.83705C10.3022 1.72797 10.1542 1.66669 9.99996 1.66669C9.84569 1.66669 9.69774 1.72797 9.58866 1.83705C9.47957 1.94614 9.41829 2.09409 9.41829 2.24835V3.82502C7.98072 3.96063 6.63549 4.59349 5.61446 5.61452C4.59343 6.63555 3.96057 7.98078 3.82496 9.41835H2.24829C2.09416 9.41879 1.94647 9.48022 1.83748 9.58921C1.72849 9.69819 1.66707 9.84589 1.66663 10ZM7.09329 10C7.09329 9.22912 7.39953 8.4898 7.94464 7.9447C8.48974 7.39959 9.22906 7.09335 9.99996 7.09335C10.7709 7.09335 11.5102 7.39959 12.0553 7.9447C12.6004 8.4898 12.9066 9.22912 12.9066 10C12.9066 10.7709 12.6004 11.5102 12.0553 12.0553C11.5102 12.6004 10.7709 12.9067 9.99996 12.9067C9.22906 12.9067 8.48974 12.6004 7.94464 12.0553C7.39953 11.5102 7.09329 10.7709 7.09329 10Z" fill="#777777"/>
<path d="M8.25586 9.99997C8.25586 9.53738 8.43962 9.09375 8.76671 8.76665C9.09381 8.43956 9.53744 8.2558 10 8.2558C10.4626 8.2558 10.9062 8.43956 11.2333 8.76665C11.5604 9.09375 11.7442 9.53738 11.7442 9.99997C11.7442 10.4625 11.5604 10.9062 11.2333 11.2333C10.9062 11.5604 10.4626 11.7441 10 11.7441C9.53744 11.7441 9.09381 11.5604 8.76671 11.2333C8.43962 10.9062 8.25586 10.4625 8.25586 9.99997Z" fill="#777777"/>
</svg>
